HIERARCHY
ROOT newVegas:Hips
{
	OFFSET 0.000000 96.479958 0.000000
	CHANNELS 6 Xposition Yposition Zposition Xrotation Yrotation Zrotation
	JOINT newVegas:Pelvis
	{
		OFFSET 0.000000 0.000000 0.000000
		CHANNELS 3 Xrotation Yrotation Zrotation
		JOINT newVegas:LeftUpLeg
		{
			OFFSET 18.735201 -5.666702 -4.541200
			CHANNELS 3 Xrotation Yrotation Zrotation
			JOINT newVegas:LeftLeg
			{
				OFFSET -0.021200 -31.938179 0.493100
				CHANNELS 3 Xrotation Yrotation Zrotation
				JOINT newVegas:LeftFoot
				{
					OFFSET 0.021200 -31.938179 -4.336299
					CHANNELS 3 Xrotation Yrotation Zrotation
					JOINT newVegas:LeftToeBase
					{
						OFFSET 0.943001 -26.722000 15.023500
						CHANNELS 3 Xrotation Yrotation Zrotation
						End Site
						{
							OFFSET 0.000000 30.670183 0.000000
						}
					}
				}
				JOINT newVegas:Left_PantLeg
				{
					OFFSET 0.663870 -9.044666 -1.108900
					CHANNELS 3 Xrotation Yrotation Zrotation
					End Site
					{
						OFFSET 1.415995 20.635357 0.000000
					}
				}
			}
		}
		JOINT newVegas:RightUpLeg
		{
			OFFSET -18.735201 -5.666702 -4.541200
			CHANNELS 3 Xrotation Yrotation Zrotation
			JOINT newVegas:RightLeg
			{
				OFFSET 0.018946 -31.938133 0.493100
				CHANNELS 3 Xrotation Yrotation Zrotation
				JOINT newVegas:RightFoot
				{
					OFFSET -0.018946 -31.938126 -4.336299
					CHANNELS 3 Xrotation Yrotation Zrotation
					JOINT newVegas:RightToeBase
					{
						OFFSET -0.943001 -26.722004 15.023500
						CHANNELS 3 Xrotation Yrotation Zrotation
						End Site
						{
							OFFSET 0.000000 30.670187 0.000000
						}
					}
				}
				JOINT newVegas:Right_PantLeg
				{
					OFFSET -0.661674 -9.044716 -1.108900
					CHANNELS 3 Xrotation Yrotation Zrotation
					End Site
					{
						OFFSET -1.415958 20.635269 0.000000
					}
				}
			}
		}
	}
	JOINT newVegas:Spine
	{
		OFFSET 0.000000 10.199997 -0.299500
		CHANNELS 3 Xrotation Yrotation Zrotation
		JOINT newVegas:Spine1
		{
			OFFSET 0.000000 11.900002 -1.516600
			CHANNELS 3 Xrotation Yrotation Zrotation
			JOINT newVegas:Spine2
			{
				OFFSET 0.000000 13.600006 -2.842500
				CHANNELS 3 Xrotation Yrotation Zrotation
				JOINT newVegas:Neck
				{
					OFFSET 0.000000 9.624100 -2.890100
					CHANNELS 3 Xrotation Yrotation Zrotation
					JOINT newVegas:Head
					{
						OFFSET 0.000000 14.068802 -1.351900
						CHANNELS 3 Xrotation Yrotation Zrotation
						JOINT newVegas:Hair_Back
						{
							OFFSET 0.000000 3.231903 -17.524799
							CHANNELS 3 Xrotation Yrotation Zrotation
							End Site
							{
								OFFSET 0.000000 19.849884 0.000000
							}
						}
						JOINT newVegas:Hair_Front
						{
							OFFSET 0.000000 31.260406 4.573800
							CHANNELS 3 Xrotation Yrotation Zrotation
							JOINT newVegas:Hair_Front1
							{
								OFFSET 0.000000 2.284103 11.993300
								CHANNELS 3 Xrotation Yrotation Zrotation
								JOINT newVegas:Hair_Front2
								{
									OFFSET 0.000000 2.284103 11.993300
									CHANNELS 3 Xrotation Yrotation Zrotation
									End Site
									{
										OFFSET 0.000000 12.208862 0.000000
									}
								}
							}
						}
						JOINT newVegas:Jowel
						{
							OFFSET 0.000000 -7.458206 6.864100
							CHANNELS 3 Xrotation Yrotation Zrotation
							End Site
							{
								OFFSET 0.000000 19.849884 0.000000
							}
						}
					}
				}
				JOINT newVegas:LeftShoulder
				{
					OFFSET 15.263000 10.923401 -0.547700
					CHANNELS 3 Xrotation Yrotation Zrotation
					JOINT newVegas:LeftArm
					{
						OFFSET 25.438599 -2.830597 -13.032500
						CHANNELS 3 Xrotation Yrotation Zrotation
						JOINT newVegas:LeftForeArm
						{
							OFFSET 29.960503 0.000000 0.000000
							CHANNELS 3 Xrotation Yrotation Zrotation
							JOINT newVegas:LeftHand
							{
								OFFSET 27.849251 0.000000 0.000000
								CHANNELS 3 Xrotation Yrotation Zrotation
								JOINT newVegas:LeftHandThumb1
								{
									OFFSET 4.487587 -3.305161 6.305391
									CHANNELS 3 Xrotation Yrotation Zrotation
									JOINT newVegas:LeftHandThumb2
									{
										OFFSET 5.480453 -3.164139 3.164143
										CHANNELS 3 Xrotation Yrotation Zrotation
										JOINT newVegas:LeftHandThumb3
										{
											OFFSET 5.159721 -2.978973 2.978967
											CHANNELS 3 Xrotation Yrotation Zrotation
											End Site
											{
												OFFSET 2.494507 5.926697 1.738678
											}
										}
									}
								}
								JOINT newVegas:LeftHandIndex1
								{
									OFFSET 18.578728 -0.527832 5.208049
									CHANNELS 3 Xrotation Yrotation Zrotation
									JOINT newVegas:LeftHandIndex2
									{
										OFFSET 3.192009 0.000000 0.000000
										CHANNELS 3 Xrotation Yrotation Zrotation
										JOINT newVegas:LeftHandIndex3
										{
											OFFSET 3.835129 0.000000 0.000000
											CHANNELS 3 Xrotation Yrotation Zrotation
											End Site
											{
												OFFSET -0.034599 3.816971 0.371180
											}
										}
									}
								}
								JOINT newVegas:LeftHandMiddle1
								{
									OFFSET 18.476105 0.000000 0.000000
									CHANNELS 3 Xrotation Yrotation Zrotation
									JOINT newVegas:LeftHandMiddle2
									{
										OFFSET 3.324875 0.000000 0.000000
										CHANNELS 3 Xrotation Yrotation Zrotation
										JOINT newVegas:LeftHandMiddle3
										{
											OFFSET 4.596550 0.000000 0.000000
											CHANNELS 3 Xrotation Yrotation Zrotation
											End Site
											{
												OFFSET 0.057701 4.578827 0.399218
											}
										}
									}
								}
								JOINT newVegas:LeftHandRing1
								{
									OFFSET 17.732719 0.121887 -4.201567
									CHANNELS 3 Xrotation Yrotation Zrotation
									JOINT newVegas:LeftHandRing2
									{
										OFFSET 2.733170 0.000000 0.000000
										CHANNELS 3 Xrotation Yrotation Zrotation
										JOINT newVegas:LeftHandRing3
										{
											OFFSET 3.178268 0.000000 0.000000
											CHANNELS 3 Xrotation Yrotation Zrotation
											End Site
											{
												OFFSET 0.119102 3.170624 0.185394
											}
										}
									}
								}
								JOINT newVegas:LeftHandPinky1
								{
									OFFSET 15.989624 -0.606689 -7.535461
									CHANNELS 3 Xrotation Yrotation Zrotation
									JOINT newVegas:LeftHandPinky2
									{
										OFFSET 2.538986 0.000000 0.000000
										CHANNELS 3 Xrotation Yrotation Zrotation
										JOINT newVegas:LeftHandPinky3
										{
											OFFSET 2.593102 0.000000 0.000000
											CHANNELS 3 Xrotation Yrotation Zrotation
											End Site
											{
												OFFSET -0.150902 2.584198 0.152708
											}
										}
									}
								}
							}
							JOINT newVegas:Left_Sleeve
							{
								OFFSET 0.267448 -0.649796 0.577675
								CHANNELS 3 Xrotation Yrotation Zrotation
								End Site
								{
									OFFSET 0.000000 15.991241 0.000000
								}
							}
							JOINT newVegas:Left_CapeC
							{
								OFFSET 15.715958 -8.608795 -6.935905
								CHANNELS 3 Xrotation Yrotation Zrotation
								JOINT newVegas:Left_CapeC1
								{
									OFFSET 0.000000 -8.688499 0.000000
									CHANNELS 3 Xrotation Yrotation Zrotation
									End Site
									{
										OFFSET 0.000000 8.688499 0.000000
									}
								}
							}
						}
						JOINT newVegas:Left_CapeB
						{
							OFFSET 26.118385 -8.608795 -7.079235
							CHANNELS 3 Xrotation Yrotation Zrotation
							JOINT newVegas:Left_CapeB1
							{
								OFFSET 0.000000 -8.688499 0.000000
								CHANNELS 3 Xrotation Yrotation Zrotation
								End Site
								{
									OFFSET 0.000000 8.688499 0.000000
								}
							}
						}
						JOINT newVegas:Left_CapeA
						{
							OFFSET 5.115639 -8.608795 -10.395809
							CHANNELS 3 Xrotation Yrotation Zrotation
							JOINT newVegas:Left_CapeA1
							{
								OFFSET 0.000000 -8.688499 0.000000
								CHANNELS 3 Xrotation Yrotation Zrotation
								End Site
								{
									OFFSET 0.000000 8.688499 0.000000
								}
							}
						}
					}
				}
				JOINT newVegas:RightShoulder
				{
					OFFSET -15.263000 10.923401 -0.547700
					CHANNELS 3 Xrotation Yrotation Zrotation
					JOINT newVegas:RightArm
					{
						OFFSET -25.438599 -2.830597 -13.032500
						CHANNELS 3 Xrotation Yrotation Zrotation
						JOINT newVegas:RightForeArm
						{
							OFFSET -29.960503 0.000000 0.000000
							CHANNELS 3 Xrotation Yrotation Zrotation
							JOINT newVegas:RightHand
							{
								OFFSET -27.849251 0.000000 0.000000
								CHANNELS 3 Xrotation Yrotation Zrotation
								JOINT newVegas:RightHandThumb1
								{
									OFFSET -4.487587 -3.305161 6.305391
									CHANNELS 3 Xrotation Yrotation Zrotation
									JOINT newVegas:RightHandThumb2
									{
										OFFSET -5.480453 -3.164139 3.164143
										CHANNELS 3 Xrotation Yrotation Zrotation
										JOINT newVegas:RightHandThumb3
										{
											OFFSET -5.159721 -2.978973 2.978967
											CHANNELS 3 Xrotation Yrotation Zrotation
											End Site
											{
												OFFSET -2.494507 5.926697 1.738678
											}
										}
									}
								}
								JOINT newVegas:RightHandIndex1
								{
									OFFSET -18.578728 -0.527832 5.208049
									CHANNELS 3 Xrotation Yrotation Zrotation
									JOINT newVegas:RightHandIndex2
									{
										OFFSET -3.192009 0.000000 0.000000
										CHANNELS 3 Xrotation Yrotation Zrotation
										JOINT newVegas:RightHandIndex3
										{
											OFFSET -3.835129 0.000000 0.000000
											CHANNELS 3 Xrotation Yrotation Zrotation
											End Site
											{
												OFFSET 0.034599 3.816971 0.371180
											}
										}
									}
								}
								JOINT newVegas:RightHandMiddle1
								{
									OFFSET -18.476105 0.000000 0.000000
									CHANNELS 3 Xrotation Yrotation Zrotation
									JOINT newVegas:RightHandMiddle2
									{
										OFFSET -3.324875 0.000000 0.000000
										CHANNELS 3 Xrotation Yrotation Zrotation
										JOINT newVegas:RightHandMiddle3
										{
											OFFSET -4.596550 0.000000 0.000000
											CHANNELS 3 Xrotation Yrotation Zrotation
											End Site
											{
												OFFSET -0.057701 4.578827 0.399218
											}
										}
									}
								}
								JOINT newVegas:RightHandRing1
								{
									OFFSET -17.732719 0.121887 -4.201567
									CHANNELS 3 Xrotation Yrotation Zrotation
									JOINT newVegas:RightHandRing2
									{
										OFFSET -2.733170 0.000000 0.000000
										CHANNELS 3 Xrotation Yrotation Zrotation
										JOINT newVegas:RightHandRing3
										{
											OFFSET -3.178268 0.000000 0.000000
											CHANNELS 3 Xrotation Yrotation Zrotation
											End Site
											{
												OFFSET -0.119102 3.170624 0.185394
											}
										}
									}
								}
								JOINT newVegas:RightHandPinky1
								{
									OFFSET -15.989624 -0.606689 -7.535461
									CHANNELS 3 Xrotation Yrotation Zrotation
									JOINT newVegas:RightHandPinky2
									{
										OFFSET -2.538986 0.000000 0.000000
										CHANNELS 3 Xrotation Yrotation Zrotation
										JOINT newVegas:RightHandPinky3
										{
											OFFSET -2.593102 0.000000 0.000000
											CHANNELS 3 Xrotation Yrotation Zrotation
											End Site
											{
												OFFSET 0.150902 2.584198 0.152708
											}
										}
									}
								}
							}
							JOINT newVegas:Right_CapeC
							{
								OFFSET -15.715958 -8.608795 -6.935905
								CHANNELS 3 Xrotation Yrotation Zrotation
								JOINT newVegas:Right_CapeC1
								{
									OFFSET 0.000000 -8.688499 0.000000
									CHANNELS 3 Xrotation Yrotation Zrotation
									End Site
									{
										OFFSET 0.000000 8.688499 0.000000
									}
								}
							}
							JOINT newVegas:Right_Sleeve
							{
								OFFSET -0.267448 -0.649994 0.577675
								CHANNELS 3 Xrotation Yrotation Zrotation
								End Site
								{
									OFFSET 0.000000 15.991302 0.000000
								}
							}
						}
						JOINT newVegas:Right_CapeA
						{
							OFFSET -5.115540 -8.608795 -10.395824
							CHANNELS 3 Xrotation Yrotation Zrotation
							JOINT newVegas:Right_CapeA1
							{
								OFFSET 0.000000 -8.688499 0.000000
								CHANNELS 3 Xrotation Yrotation Zrotation
								End Site
								{
									OFFSET 0.000000 8.688499 0.000000
								}
							}
						}
						JOINT newVegas:Right_CapeB
						{
							OFFSET -26.118187 -8.608795 -7.079266
							CHANNELS 3 Xrotation Yrotation Zrotation
							JOINT newVegas:Right_CapeB1
							{
								OFFSET 0.000000 -8.688499 0.000000
								CHANNELS 3 Xrotation Yrotation Zrotation
								End Site
								{
									OFFSET 0.000000 8.688499 0.000000
								}
							}
						}
					}
				}
				JOINT newVegas:Left_Collar
				{
					OFFSET 18.625099 8.655502 8.828100
					CHANNELS 3 Xrotation Yrotation Zrotation
					JOINT newVegas:Left_Collar1
					{
						OFFSET 14.783401 10.540405 -1.259500
						CHANNELS 3 Xrotation Yrotation Zrotation
						End Site
						{
							OFFSET 0.000000 18.199875 0.000000
						}
					}
				}
				JOINT newVegas:Collar_Back
				{
					OFFSET 0.000000 15.630707 -20.132601
					CHANNELS 3 Xrotation Yrotation Zrotation
					End Site
					{
						OFFSET 0.000000 22.523010 0.000000
					}
				}
				JOINT newVegas:Left_Peck
				{
					OFFSET 17.239599 -5.132599 25.482599
					CHANNELS 3 Xrotation Yrotation Zrotation
					End Site
					{
						OFFSET 0.000000 22.523010 0.000000
					}
				}
				JOINT newVegas:Right_Peck
				{
					OFFSET -17.239599 -5.132202 25.482599
					CHANNELS 3 Xrotation Yrotation Zrotation
					End Site
					{
						OFFSET 0.000000 22.523010 0.000000
					}
				}
				JOINT newVegas:Right_Collar
				{
					OFFSET -18.625099 8.655792 8.828100
					CHANNELS 3 Xrotation Yrotation Zrotation
					JOINT newVegas:Right_Collar1
					{
						OFFSET -14.783401 10.539993 -1.259500
						CHANNELS 3 Xrotation Yrotation Zrotation
						End Site
						{
							OFFSET 0.000000 18.199631 0.000000
						}
					}
				}
			}
		}
		JOINT newVegas:Belly
		{
			OFFSET 0.000000 -6.540398 9.014299
			CHANNELS 3 Xrotation Yrotation Zrotation
			End Site
			{
				OFFSET 0.000000 11.566666 0.000000
			}
		}
	}
	JOINT newVegas:ElvisFacialAnim_Joint
	{
		OFFSET 1.000000 -95.330101 -8.825800
		CHANNELS 3 Xrotation Yrotation Zrotation
		End Site
		{
			OFFSET 0.000000 35.315800 0.000000
		}
	}
}
MOTION
Frames: 4
Frame Time: 0.033333
0.047559 95.253563 4.395623 -3.753945 -5.231987 -3.171509 -0.000000 -0.000000 -0.000000 -14.979349 13.499684 12.528631 20.441769 1.774973 4.635314 -2.589745 1.117665 -9.522792 0.000000 -0.000000 0.000000 0.000000 0.000000 -0.000000 4.295911 -10.109372 2.818658 5.003069 -9.656318 -3.260457 -4.846830 -1.880313 4.153140 0.000000 0.000002 0.000000 -0.000000 -0.000000 -0.000000 3.309462 1.517601 2.139699 1.146036 0.329155 1.552971 1.123712 0.356192 1.550934 1.124479 -0.019070 0.092138 1.124482 -0.019072 0.092139 0.000000 0.000000 -0.000000 1.124481 -0.019068 0.092138 1.124550 -0.019075 0.092139 -0.000000 -0.000000 -0.000000 0.000000 0.000000 -0.000000 1.046097 -17.446000 -12.316923 3.917408 -19.989349 -69.769214 0.000000 -1.451102 -0.000020 -33.223403 -1.351840 -6.183807 -0.666100 2.158570 4.837364 11.859636 25.414862 17.056680 -0.000000 -0.000003 -0.000005 -0.407816 -0.912724 -7.567462 0.268840 1.755995 -17.407505 -0.000001 -0.000000 0.000004 -0.077458 2.661815 -15.698686 0.268775 1.755773 -17.405240 0.000001 0.000000 -0.000000 0.137974 3.644574 -21.134840 0.386575 2.094650 -20.910440 0.000000 0.000001 0.000001 0.968546 5.534964 -27.130765 0.268810 1.755881 -17.406384 -0.000000 0.000000 0.000001 -0.000000 0.000000 0.000001 -0.000000 0.000000 0.000001 -0.000001 0.000000 0.000001 -0.000001 -0.000001 0.000001 -0.000001 -0.000001 0.000000 -0.000001 -0.000001 0.000001 -0.000003 -0.000001 0.000000 1.189946 15.344223 14.707060 13.160219 27.554908 58.781571 0.000006 6.673006 0.000014 -20.079301 -0.504643 6.834297 -1.664526 -0.169100 -4.216928 12.708018 -29.838180 -16.127714 0.000003 -0.000000 -0.000001 -0.390926 1.215763 6.807104 0.214628 -1.398892 17.443962 0.000000 0.000002 0.000002 -0.135886 -2.206375 14.998805 0.214470 -1.398412 17.437683 0.000001 -0.000001 -0.000000 0.031302 -3.078184 20.463797 0.308451 -1.668275 20.948530 0.000001 -0.000001 0.000000 0.790098 -4.865183 26.475290 0.214441 -1.398313 17.436489 0.000000 0.000001 0.000002 0.000002 0.000000 -0.000000 0.000002 0.000000 0.000000 0.000002 0.000000 0.000000 0.000001 0.000000 -0.000000 0.000001 0.000000 -0.000000 0.000001 0.000000 -0.000000 0.000001 -0.000000 -0.000000 -0.000000 -0.000000 0.000000 -0.000000 -0.000000 0.000000 -0.000000 -0.000000 0.000000 -0.000000 -0.000000 0.000000 -0.000000 -0.000000 0.000000 -0.000000 -0.000000 0.000000 -0.000000 -0.000000 0.000000 0.000000 0.000000 0.000000 -0.000000 -0.000000 -0.000000 
-0.058300 95.269020 4.419425 -3.761232 -4.952655 -2.887876 -0.000000 -0.000000 -0.000000 -14.576554 13.567081 12.241789 19.603305 1.535890 4.564738 -2.093132 1.067193 -9.531206 0.000000 0.000000 -0.000000 0.000000 0.000001 -0.000000 3.966371 -9.875181 2.524318 5.891325 -9.493303 -3.026599 -5.413877 -2.608609 3.980722 0.000000 0.000000 0.000000 0.000000 -0.000002 -0.000000 2.706047 0.812385 2.060392 1.810059 0.601719 1.379663 1.324674 0.412653 1.519695 1.132666 0.047324 0.051480 1.132659 0.047323 0.051482 -0.000000 -0.000000 -0.000000 1.132667 0.047323 0.051481 1.132597 0.047329 0.051481 -0.000000 -0.000000 0.000000 -0.000000 -0.000000 -0.000000 1.038393 -17.366871 -12.234515 4.107447 -18.645860 -68.920884 -0.000004 -2.137287 0.000007 -31.196264 -1.674600 -4.875879 0.096988 3.186962 3.478819 10.141337 26.220674 19.588673 0.000000 0.000001 -0.000001 -0.231051 -1.166068 -4.693814 0.241993 1.667993 -16.508909 0.000001 -0.000000 -0.000003 -0.069609 2.351213 -12.075349 0.232503 1.635629 -16.179514 -0.000000 0.000000 -0.000001 -0.065198 2.901812 -18.175465 0.353819 2.006887 -19.995254 -0.000000 -0.000002 -0.000000 0.993490 5.665792 -24.500525 0.225327 1.610688 -15.926097 0.000000 -0.000003 -0.000001 0.000002 -0.000000 -0.000000 0.000002 -0.000000 -0.000000 0.000001 0.000000 0.000000 -0.000002 0.000000 0.000000 -0.000002 0.000000 0.000000 -0.000002 0.000000 0.000000 -0.000004 -0.000000 0.000000 1.114562 15.468516 14.874678 12.885090 27.222556 58.912431 0.000001 6.688426 -0.000000 -19.415725 -0.471095 6.786447 -1.444542 -0.909991 -4.785460 13.156420 -29.001571 -14.473861 0.000000 0.000002 0.000003 -0.336648 1.415220 5.765779 0.216869 -1.406019 17.535712 -0.000002 0.000001 -0.000002 -0.168401 -1.937450 13.588030 0.208285 -1.378555 17.182270 0.000001 0.000001 -0.000001 0.024669 -3.004786 19.240711 0.313459 -1.681302 21.119920 0.000000 -0.000001 0.000001 0.830885 -4.951130 26.303748 0.216039 -1.403386 17.501907 0.000000 0.000002 -0.000001 0.000003 0.000000 -0.000000 0.000003 -0.000000 -0.000001 0.000003 0.000000 -0.000000 -0.000000 0.000001 -0.000001 -0.000000 0.000001 -0.000000 -0.000000 0.000001 -0.000001 -0.000000 0.000001 -0.000000 -0.000000 0.000000 -0.000000 -0.000000 0.000000 -0.000000 -0.000000 0.000000 -0.000000 -0.000000 0.000000 -0.000000 -0.000000 0.000000 -0.000000 -0.000000 0.000000 -0.000000 -0.000000 0.000000 -0.000000 0.000000 -0.000000 0.000000 -0.000000 -0.000000 -0.000000 
-0.145337 95.336411 4.453930 -3.845693 -4.512512 -2.501552 0.000000 0.000000 0.000000 -13.793572 13.718266 11.780533 18.136007 1.134957 4.432356 -1.262551 0.992767 -9.487478 -0.000000 -0.000000 -0.000000 -0.000000 0.000001 -0.000000 3.949358 -10.249905 2.074936 6.438549 -9.455346 -2.769616 -5.886524 -2.741329 3.870832 -0.000000 0.000002 0.000000 0.000000 0.000001 -0.000000 2.601417 -0.049039 1.790261 2.143415 0.854296 1.134085 1.220835 0.433585 1.415507 1.130821 0.191799 -0.005721 1.130826 0.191797 -0.005720 -0.000000 0.000000 0.000000 1.130820 0.191799 -0.005721 1.130894 0.191797 -0.005721 0.000000 -0.000000 0.000000 -0.000000 0.000000 0.000000 1.051513 -17.209413 -12.082599 4.675207 -16.864022 -68.161299 -0.000007 -4.503133 -0.000003 -28.761729 -0.653046 -3.336954 0.325530 3.600265 3.027294 8.714687 25.958834 21.222081 -0.000002 -0.000001 -0.000004 -0.085003 -1.596225 -2.312829 0.212791 1.566139 -15.474074 0.000001 -0.000000 0.000000 -0.078546 1.964804 -9.342346 0.203564 1.532398 -15.132532 -0.000002 -0.000000 0.000001 -0.107584 2.594708 -16.141455 0.318805 1.907965 -18.970143 -0.000000 -0.000001 0.000001 0.959442 5.647267 -23.163183 0.189751 1.480397 -14.607171 0.000000 -0.000005 0.000001 0.000000 0.000000 0.000001 0.000000 0.000000 0.000001 -0.000001 0.000000 0.000001 0.000002 0.000000 -0.000001 0.000002 0.000000 -0.000001 0.000002 0.000000 -0.000001 0.000000 0.000001 -0.000001 1.020541 15.709643 14.995783 12.557371 26.858957 59.210910 0.000002 6.607953 -0.000004 -18.212380 -0.281384 6.420517 -1.713321 -1.023241 -6.497533 15.188925 -28.627010 -10.291920 0.000001 -0.000002 -0.000001 -0.585076 1.688842 8.543499 0.305031 -1.659332 20.830812 -0.000004 0.000000 -0.000002 -0.310609 -1.695312 16.127134 0.247147 -1.498444 18.730402 -0.000001 0.000003 0.000002 0.142876 -3.409303 21.557445 0.363384 -1.805198 22.761235 -0.000001 -0.000001 -0.000001 1.010163 -5.268893 27.408407 0.254685 -1.520472 19.016394 0.000001 -0.000000 -0.000001 0.000001 0.000001 0.000000 0.000001 0.000001 0.000000 0.000001 0.000001 0.000000 0.000000 -0.000001 -0.000000 0.000000 -0.000001 -0.000000 0.000000 -0.000001 -0.000000 0.000001 -0.000001 -0.000000 0.000000 -0.000000 0.000000 0.000000 -0.000000 0.000000 0.000000 -0.000000 0.000000 0.000000 -0.000000 0.000000 0.000000 -0.000000 0.000000 0.000000 -0.000000 0.000000 0.000000 -0.000000 0.000000 0.000000 -0.000000 -0.000000 0.000000 0.000000 0.000000 
-0.207885 95.425156 4.454127 -4.008531 -3.840776 -2.010866 0.000000 0.000000 0.000000 -12.956802 13.185006 11.024423 16.636884 1.132406 4.339414 -0.011185 1.000240 -9.435203 0.000000 0.000000 -0.000000 -0.000000 -0.000002 -0.000001 4.007584 -11.323839 1.467674 7.099573 -8.497903 -2.412779 -6.457508 -3.314870 3.634767 0.000000 0.000000 -0.000000 -0.000000 -0.000000 0.000000 2.915588 -0.875255 1.427318 2.261490 1.092979 0.771191 0.922427 0.432302 1.187594 1.130732 0.413801 -0.050602 1.130733 0.413800 -0.050602 -0.000000 -0.000000 -0.000000 1.130803 0.413797 -0.050602 1.130733 0.413804 -0.050602 -0.000000 -0.000000 -0.000000 -0.000000 -0.000000 -0.000000 1.061493 -16.858464 -11.976629 5.342478 -15.442542 -67.118261 -0.000002 -7.722393 0.000021 -26.203246 0.784800 -1.846065 0.145411 3.516035 3.257227 8.651345 26.035570 21.359844 0.000003 -0.000002 -0.000003 -0.067534 -1.887193 -1.963759 0.200383 1.520619 -15.013333 0.000001 -0.000000 -0.000001 -0.123113 1.656876 -9.160917 0.193731 1.495576 -14.760392 -0.000000 0.000000 0.000002 -0.139979 2.471161 -16.032923 0.304217 1.865007 -18.526968 0.000001 0.000003 -0.000000 0.926977 5.562049 -23.397890 0.174982 1.422538 -14.024059 -0.000001 -0.000005 -0.000000 -0.000002 0.000001 0.000001 -0.000002 0.000001 0.000001 -0.000002 0.000001 0.000001 0.000001 0.000000 -0.000002 0.000001 0.000000 -0.000001 0.000001 0.000000 -0.000002 -0.000000 0.000000 -0.000002 0.962520 15.921757 14.991333 11.979194 26.512419 59.857285 -0.000003 6.393568 -0.000001 -16.459347 -0.269496 5.990740 -2.362835 -0.764786 -8.931288 17.982969 -28.230190 -4.533468 -0.000001 -0.000004 -0.000001 -1.073663 1.836053 13.719993 0.478600 -2.058225 26.178095 -0.000001 0.000002 -0.000000 -0.506888 -1.703828 21.091662 0.317603 -1.691985 21.260805 0.000002 0.000002 0.000003 0.431535 -4.144032 26.060322 0.449221 -1.997365 25.347599 0.000000 0.000001 0.000001 1.302728 -5.727831 29.318362 0.322008 -1.703246 21.409358 0.000000 0.000003 0.000003 0.000002 0.000000 0.000001 0.000002 -0.000000 -0.000000 0.000002 0.000000 -0.000000 -0.000001 0.000001 -0.000001 -0.000001 0.000000 -0.000001 -0.000001 0.000001 -0.000001 -0.000001 -0.000000 -0.000001 -0.000000 0.000000 -0.000000 -0.000000 0.000000 -0.000000 -0.000000 0.000000 -0.000000 -0.000000 0.000000 -0.000000 -0.000000 0.000000 -0.000000 -0.000000 0.000000 -0.000000 -0.000000 0.000000 -0.000000 -0.000000 0.000000 -0.000000 0.000000 0.000000 0.000000 
